<svg xmlns="http://www.w3.org/2000/svg" width="1280" height="560" viewBox="0 0 1280 560">
  <rect x="0" y="0" width="640" height="560" rx="0" fill="#2d353b"/>
  <rect x="0" y="0" width="640" height="48" rx="0" fill="#232a2e"/>
  <line x1="0" y1="48" x2="640" y2="48" stroke="#4f585e"/>
  <rect x="18" y="18" width="18" height="2.5" rx="1" fill="#859289"/>
  <rect x="18" y="24" width="18" height="2.5" rx="1" fill="#859289"/>
  <rect x="18" y="30" width="18" height="2.5" rx="1" fill="#859289"/>
  <circle cx="52" cy="24" r="9" fill="#4f585e"/>
  <rect x="72" y="14" width="250" height="20" rx="6" fill="#2d353b" stroke="#4f585e"/>
  <text x="82" y="28" font-family="-apple-system, BlinkMacSystemFont, Segoe UI, system-ui, sans-serif" font-size="11.5" fill="#859289">Type / to search</text>
  <circle cx="614" cy="24" r="11" fill="#a7c080"/>
  <text x="24" y="84" font-family="-apple-system, BlinkMacSystemFont, Segoe UI, system-ui, sans-serif" font-size="16" fill="#7fbbb3">Nagi-ovo</text>
  <text x="94" y="84" font-family="-apple-system, BlinkMacSystemFont, Segoe UI, system-ui, sans-serif" font-size="16" fill="#859289">/</text>
  <text x="104" y="84" font-family="-apple-system, BlinkMacSystemFont, Segoe UI, system-ui, sans-serif" font-size="16" font-weight="650" fill="#7fbbb3">everforest-demo</text>
  <rect x="244" y="71" width="52" height="18" rx="9" fill="none" stroke="#4f585e"/>
  <text x="270" y="84" font-family="-apple-system, BlinkMacSystemFont, Segoe UI, system-ui, sans-serif" font-size="11" text-anchor="middle" fill="#859289">Public</text>
  <text x="24" y="116" font-family="-apple-system, BlinkMacSystemFont, Segoe UI, system-ui, sans-serif" font-size="13.5" font-weight="600" fill="#d3c6aa">Code</text>
  <text x="88" y="116" font-family="-apple-system, BlinkMacSystemFont, Segoe UI, system-ui, sans-serif" font-size="13.5" fill="#859289">Issues 12</text>
  <text x="174" y="116" font-family="-apple-system, BlinkMacSystemFont, Segoe UI, system-ui, sans-serif" font-size="13.5" fill="#859289">Pull requests 3</text>
  <text x="292" y="116" font-family="-apple-system, BlinkMacSystemFont, Segoe UI, system-ui, sans-serif" font-size="13.5" fill="#859289">Settings</text>
  <line x1="0" y1="128" x2="640" y2="128" stroke="#4f585e"/>
  <rect x="20" y="125" width="40" height="3" rx="1.5" fill="#e69875"/>
  <rect x="24" y="150" width="78" height="26" rx="6" fill="#343f44" stroke="#4f585e"/>
  <text x="36" y="167" font-family="-apple-system, BlinkMacSystemFont, Segoe UI, system-ui, sans-serif" font-size="12.5" fill="#d3c6aa">⎇ main</text>
  <rect x="528" y="150" width="88" height="26" rx="6" fill="#a7c080"/>
  <text x="572" y="167" font-family="-apple-system, BlinkMacSystemFont, Segoe UI, system-ui, sans-serif" font-size="12.5" font-weight="600" text-anchor="middle" fill="#232a2e">◇ Code ▾</text>
  <rect x="24" y="196" width="592" height="150" rx="8" fill="#2d353b" stroke="#4f585e"/>
  <rect x="24" y="196" width="592" height="30" rx="8" fill="#232a2e"/>
  <rect x="24" y="212" width="592" height="14" rx="0" fill="#232a2e"/>
  <line x1="24" y1="226" x2="616" y2="226" stroke="#4f585e"/>
  <text x="38" y="216" font-family="-apple-system, BlinkMacSystemFont, Segoe UI, system-ui, sans-serif" font-size="12.5" fill="#d3c6aa">theme.ts</text>
  <text x="602" y="216" font-family="-apple-system, BlinkMacSystemFont, Segoe UI, system-ui, sans-serif" font-size="11.5" text-anchor="end" fill="#859289">128 lines · 4.2 KB</text>
  <text x="42" y="248" font-family="ui-monospace, SFMono-Regular, Menlo, monospace" font-size="12.5" xml:space="preserve"><tspan fill="#859289">// Everforest — gentle on the eyes</tspan></text>
  <text x="42" y="269" font-family="ui-monospace, SFMono-Regular, Menlo, monospace" font-size="12.5" xml:space="preserve"><tspan fill="#e67e80">export function </tspan><tspan fill="#a7c080">resolve</tspan><tspan fill="#d3c6aa">(mode: </tspan><tspan fill="#dbbc7f">Mode</tspan><tspan fill="#d3c6aa">, contrast) {</tspan></text>
  <text x="42" y="290" font-family="ui-monospace, SFMono-Regular, Menlo, monospace" font-size="12.5" xml:space="preserve"><tspan fill="#e67e80">  const </tspan><tspan fill="#e69875">p</tspan><tspan fill="#d3c6aa"> = everforest[mode]</tspan></text>
  <text x="42" y="311" font-family="ui-monospace, SFMono-Regular, Menlo, monospace" font-size="12.5" xml:space="preserve"><tspan fill="#e67e80">  return</tspan><tspan fill="#d3c6aa"> { ...p, ...p.bg[contrast] }</tspan></text>
  <text x="42" y="332" font-family="ui-monospace, SFMono-Regular, Menlo, monospace" font-size="12.5" xml:space="preserve"><tspan fill="#d3c6aa">}</tspan></text>
  <rect x="24" y="366" width="592" height="150" rx="8" fill="#2d353b" stroke="#4f585e"/>
  <rect x="24" y="366" width="592" height="30" rx="8" fill="#232a2e"/>
  <rect x="24" y="382" width="592" height="14" rx="0" fill="#232a2e"/>
  <line x1="24" y1="396" x2="616" y2="396" stroke="#4f585e"/>
  <text x="38" y="386" font-family="-apple-system, BlinkMacSystemFont, Segoe UI, system-ui, sans-serif" font-size="12.5" fill="#d3c6aa">mapping.ts</text>
  <text x="602" y="386" font-family="-apple-system, BlinkMacSystemFont, Segoe UI, system-ui, sans-serif" font-size="11.5" text-anchor="end" fill="#859289">+3 −1</text>
  <text x="38" y="416" font-family="ui-monospace, SFMono-Regular, Menlo, monospace" font-size="12.5"  fill="#859289"> </text>
  <text x="54" y="416" font-family="ui-monospace, SFMono-Regular, Menlo, monospace" font-size="12.5" fill="#d3c6aa" xml:space="preserve">   t["--bgColor-default"] = bg0</text>
  <rect x="25" y="423" width="590" height="20" rx="0" fill="#514045"/>
  <text x="38" y="437" font-family="ui-monospace, SFMono-Regular, Menlo, monospace" font-size="12.5"  fill="#859289">−</text>
  <text x="54" y="437" font-family="ui-monospace, SFMono-Regular, Menlo, monospace" font-size="12.5" fill="#d3c6aa" xml:space="preserve">   t["--fgColor-accent"]  = "#0969da"</text>
  <rect x="25" y="444" width="590" height="20" rx="0" fill="#425047"/>
  <text x="38" y="458" font-family="ui-monospace, SFMono-Regular, Menlo, monospace" font-size="12.5"  fill="#859289">+</text>
  <text x="54" y="458" font-family="ui-monospace, SFMono-Regular, Menlo, monospace" font-size="12.5" fill="#d3c6aa" xml:space="preserve">   t["--fgColor-accent"]  = blue</text>
  <rect x="25" y="465" width="590" height="20" rx="0" fill="#425047"/>
  <text x="38" y="479" font-family="ui-monospace, SFMono-Regular, Menlo, monospace" font-size="12.5"  fill="#859289">+</text>
  <text x="54" y="479" font-family="ui-monospace, SFMono-Regular, Menlo, monospace" font-size="12.5" fill="#d3c6aa" xml:space="preserve">   t["--fgColor-link"]    = blue</text>
  <text x="38" y="500" font-family="ui-monospace, SFMono-Regular, Menlo, monospace" font-size="12.5"  fill="#859289"> </text>
  <text x="54" y="500" font-family="ui-monospace, SFMono-Regular, Menlo, monospace" font-size="12.5" fill="#d3c6aa" xml:space="preserve">   return t</text>
  <text x="624" y="544" font-family="-apple-system, BlinkMacSystemFont, Segoe UI, system-ui, sans-serif" font-size="12" text-anchor="end" font-weight="600" fill="#859289">Dark</text>
  <rect x="640" y="0" width="640" height="560" rx="0" fill="#fdf6e3"/>
  <rect x="640" y="0" width="640" height="48" rx="0" fill="#efebd4"/>
  <line x1="640" y1="48" x2="1280" y2="48" stroke="#e0dcc7"/>
  <rect x="658" y="18" width="18" height="2.5" rx="1" fill="#939f91"/>
  <rect x="658" y="24" width="18" height="2.5" rx="1" fill="#939f91"/>
  <rect x="658" y="30" width="18" height="2.5" rx="1" fill="#939f91"/>
  <circle cx="692" cy="24" r="9" fill="#e0dcc7"/>
  <rect x="712" y="14" width="250" height="20" rx="6" fill="#fdf6e3" stroke="#e0dcc7"/>
  <text x="722" y="28" font-family="-apple-system, BlinkMacSystemFont, Segoe UI, system-ui, sans-serif" font-size="11.5" fill="#939f91">Type / to search</text>
  <circle cx="1254" cy="24" r="11" fill="#8da101"/>
  <text x="664" y="84" font-family="-apple-system, BlinkMacSystemFont, Segoe UI, system-ui, sans-serif" font-size="16" fill="#3a94c5">Nagi-ovo</text>
  <text x="734" y="84" font-family="-apple-system, BlinkMacSystemFont, Segoe UI, system-ui, sans-serif" font-size="16" fill="#939f91">/</text>
  <text x="744" y="84" font-family="-apple-system, BlinkMacSystemFont, Segoe UI, system-ui, sans-serif" font-size="16" font-weight="650" fill="#3a94c5">everforest-demo</text>
  <rect x="884" y="71" width="52" height="18" rx="9" fill="none" stroke="#e0dcc7"/>
  <text x="910" y="84" font-family="-apple-system, BlinkMacSystemFont, Segoe UI, system-ui, sans-serif" font-size="11" text-anchor="middle" fill="#939f91">Public</text>
  <text x="664" y="116" font-family="-apple-system, BlinkMacSystemFont, Segoe UI, system-ui, sans-serif" font-size="13.5" font-weight="600" fill="#5c6a72">Code</text>
  <text x="728" y="116" font-family="-apple-system, BlinkMacSystemFont, Segoe UI, system-ui, sans-serif" font-size="13.5" fill="#939f91">Issues 12</text>
  <text x="814" y="116" font-family="-apple-system, BlinkMacSystemFont, Segoe UI, system-ui, sans-serif" font-size="13.5" fill="#939f91">Pull requests 3</text>
  <text x="932" y="116" font-family="-apple-system, BlinkMacSystemFont, Segoe UI, system-ui, sans-serif" font-size="13.5" fill="#939f91">Settings</text>
  <line x1="640" y1="128" x2="1280" y2="128" stroke="#e0dcc7"/>
  <rect x="660" y="125" width="40" height="3" rx="1.5" fill="#f57d26"/>
  <rect x="664" y="150" width="78" height="26" rx="6" fill="#f4f0d9" stroke="#e0dcc7"/>
  <text x="676" y="167" font-family="-apple-system, BlinkMacSystemFont, Segoe UI, system-ui, sans-serif" font-size="12.5" fill="#5c6a72">⎇ main</text>
  <rect x="1168" y="150" width="88" height="26" rx="6" fill="#8da101"/>
  <text x="1212" y="167" font-family="-apple-system, BlinkMacSystemFont, Segoe UI, system-ui, sans-serif" font-size="12.5" font-weight="600" text-anchor="middle" fill="#fffbef">◇ Code ▾</text>
  <rect x="664" y="196" width="592" height="150" rx="8" fill="#fdf6e3" stroke="#e0dcc7"/>
  <rect x="664" y="196" width="592" height="30" rx="8" fill="#efebd4"/>
  <rect x="664" y="212" width="592" height="14" rx="0" fill="#efebd4"/>
  <line x1="664" y1="226" x2="1256" y2="226" stroke="#e0dcc7"/>
  <text x="678" y="216" font-family="-apple-system, BlinkMacSystemFont, Segoe UI, system-ui, sans-serif" font-size="12.5" fill="#5c6a72">theme.ts</text>
  <text x="1242" y="216" font-family="-apple-system, BlinkMacSystemFont, Segoe UI, system-ui, sans-serif" font-size="11.5" text-anchor="end" fill="#939f91">128 lines · 4.2 KB</text>
  <text x="682" y="248" font-family="ui-monospace, SFMono-Regular, Menlo, monospace" font-size="12.5" xml:space="preserve"><tspan fill="#939f91">// Everforest — gentle on the eyes</tspan></text>
  <text x="682" y="269" font-family="ui-monospace, SFMono-Regular, Menlo, monospace" font-size="12.5" xml:space="preserve"><tspan fill="#f85552">export function </tspan><tspan fill="#8da101">resolve</tspan><tspan fill="#5c6a72">(mode: </tspan><tspan fill="#dfa000">Mode</tspan><tspan fill="#5c6a72">, contrast) {</tspan></text>
  <text x="682" y="290" font-family="ui-monospace, SFMono-Regular, Menlo, monospace" font-size="12.5" xml:space="preserve"><tspan fill="#f85552">  const </tspan><tspan fill="#f57d26">p</tspan><tspan fill="#5c6a72"> = everforest[mode]</tspan></text>
  <text x="682" y="311" font-family="ui-monospace, SFMono-Regular, Menlo, monospace" font-size="12.5" xml:space="preserve"><tspan fill="#f85552">  return</tspan><tspan fill="#5c6a72"> { ...p, ...p.bg[contrast] }</tspan></text>
  <text x="682" y="332" font-family="ui-monospace, SFMono-Regular, Menlo, monospace" font-size="12.5" xml:space="preserve"><tspan fill="#5c6a72">}</tspan></text>
  <rect x="664" y="366" width="592" height="150" rx="8" fill="#fdf6e3" stroke="#e0dcc7"/>
  <rect x="664" y="366" width="592" height="30" rx="8" fill="#efebd4"/>
  <rect x="664" y="382" width="592" height="14" rx="0" fill="#efebd4"/>
  <line x1="664" y1="396" x2="1256" y2="396" stroke="#e0dcc7"/>
  <text x="678" y="386" font-family="-apple-system, BlinkMacSystemFont, Segoe UI, system-ui, sans-serif" font-size="12.5" fill="#5c6a72">mapping.ts</text>
  <text x="1242" y="386" font-family="-apple-system, BlinkMacSystemFont, Segoe UI, system-ui, sans-serif" font-size="11.5" text-anchor="end" fill="#939f91">+3 −1</text>
  <text x="678" y="416" font-family="ui-monospace, SFMono-Regular, Menlo, monospace" font-size="12.5"  fill="#939f91"> </text>
  <text x="694" y="416" font-family="ui-monospace, SFMono-Regular, Menlo, monospace" font-size="12.5" fill="#5c6a72" xml:space="preserve">   t["--bgColor-default"] = bg0</text>
  <rect x="665" y="423" width="590" height="20" rx="0" fill="#fde3da"/>
  <text x="678" y="437" font-family="ui-monospace, SFMono-Regular, Menlo, monospace" font-size="12.5"  fill="#939f91">−</text>
  <text x="694" y="437" font-family="ui-monospace, SFMono-Regular, Menlo, monospace" font-size="12.5" fill="#5c6a72" xml:space="preserve">   t["--fgColor-accent"]  = "#0969da"</text>
  <rect x="665" y="444" width="590" height="20" rx="0" fill="#f0f1d2"/>
  <text x="678" y="458" font-family="ui-monospace, SFMono-Regular, Menlo, monospace" font-size="12.5"  fill="#939f91">+</text>
  <text x="694" y="458" font-family="ui-monospace, SFMono-Regular, Menlo, monospace" font-size="12.5" fill="#5c6a72" xml:space="preserve">   t["--fgColor-accent"]  = blue</text>
  <rect x="665" y="465" width="590" height="20" rx="0" fill="#f0f1d2"/>
  <text x="678" y="479" font-family="ui-monospace, SFMono-Regular, Menlo, monospace" font-size="12.5"  fill="#939f91">+</text>
  <text x="694" y="479" font-family="ui-monospace, SFMono-Regular, Menlo, monospace" font-size="12.5" fill="#5c6a72" xml:space="preserve">   t["--fgColor-link"]    = blue</text>
  <text x="678" y="500" font-family="ui-monospace, SFMono-Regular, Menlo, monospace" font-size="12.5"  fill="#939f91"> </text>
  <text x="694" y="500" font-family="ui-monospace, SFMono-Regular, Menlo, monospace" font-size="12.5" fill="#5c6a72" xml:space="preserve">   return t</text>
  <text x="1264" y="544" font-family="-apple-system, BlinkMacSystemFont, Segoe UI, system-ui, sans-serif" font-size="12" text-anchor="end" font-weight="600" fill="#939f91">Light</text>
  <line x1="640" y1="0" x2="640" y2="560" stroke="#232a2e" stroke-width="2"/>
</svg>
